<svg width="56" height="56" viewBox="0 0 56 56" fill="none" xmlns="http://www.w3.org/2000/svg">
<path d="M50.26 35H39.6667C38.429 35 37.242 35.4917 36.3668 36.3668C35.4917 37.242 35 38.429 35 39.6667V50.26" stroke="black" stroke-width="4.66667" stroke-linecap="round" stroke-linejoin="round"/>
<path d="M16.3334 7.7937V11.667C16.3334 13.5236 17.0709 15.304 18.3836 16.6168C19.6964 17.9295 21.4769 18.667 23.3334 18.667C24.5711 18.667 25.758 19.1587 26.6332 20.0339C27.5084 20.909 28 22.096 28 23.3337C28 25.9004 30.1 28.0004 32.6667 28.0004C33.9044 28.0004 35.0914 27.5087 35.9665 26.6335C36.8417 25.7584 37.3334 24.5714 37.3334 23.3337C37.3334 20.767 39.4334 18.667 42 18.667H49.3967" stroke="black" stroke-width="4.66667" stroke-linecap="round" stroke-linejoin="round"/>
<path d="M25.6668 51.2165V41.9998C25.6668 40.7622 25.1751 39.5752 24.2999 38.7C23.4248 37.8248 22.2378 37.3332 21.0001 37.3332C19.7624 37.3332 18.5755 36.8415 17.7003 35.9663C16.8251 35.0912 16.3334 33.9042 16.3334 32.6665V30.3332C16.3334 29.0955 15.8418 27.9085 14.9666 27.0333C14.0914 26.1582 12.9045 25.6665 11.6668 25.6665H4.78345" stroke="black" stroke-width="4.66667" stroke-linecap="round" stroke-linejoin="round"/>
<path d="M28 51.3332C40.8866 51.3332 51.3333 40.8865 51.3333 27.9998C51.3333 15.1132 40.8866 4.6665 28 4.6665C15.1133 4.6665 4.66663 15.1132 4.66663 27.9998C4.66663 40.8865 15.1133 51.3332 28 51.3332Z" stroke="black" stroke-width="4.66667" stroke-linecap="round" stroke-linejoin="round"/>
</svg>
