<svg width="1000" height="462" viewBox="0 0 1000 462" fill="none" xmlns="http://www.w3.org/2000/svg">
<g opacity="0.12">
<line x1="216" y1="203.5" x2="1261" y2="203.5" stroke="white"/>
<line x1="100" y1="459.5" x2="1377" y2="459.5" stroke="white"/>
<line x1="216" y1="139.5" x2="1261" y2="139.5" stroke="white"/>
<line x1="216" y1="395.5" x2="1261" y2="395.5" stroke="white"/>
<line x1="100" y1="75.5" x2="1377" y2="75.5001" stroke="white"/>
<line x1="216" y1="331.5" x2="1261" y2="331.5" stroke="white"/>
<line x1="216" y1="267.5" x2="1261" y2="267.5" stroke="white"/>
<line x1="100.5" y1="742" x2="100.5" y2="-189" stroke="white"/>
<line x1="680.5" y1="524" x2="680.5" y2="267" stroke="white"/>
<line x1="448.5" y1="524" x2="448.5" y2="267" stroke="white"/>
<line x1="332.5" y1="652" x2="332.5" y2="141" stroke="white"/>
<line x1="216.5" y1="742" x2="216.5" y2="-21" stroke="white"/>
<line x1="796.5" y1="524" x2="796.5" y2="267" stroke="white"/>
<g clip-path="url(#clip0_1_122)">
<mask id="path-14-inside-1_1_122" fill="white">
<path d="M935.595 -33.6794H1017V229.688H935.595V-33.6794Z"/>
</mask>
<line x1="894.312" y1="155.475" x2="1028.03" y2="93.1192" stroke="white" stroke-width="0.684071"/>
<line x1="894.312" y1="76.3316" x2="1028.03" y2="13.9761" stroke="white" stroke-width="0.684071"/>
<line x1="894.312" y1="234.618" x2="1028.03" y2="172.263" stroke="white" stroke-width="0.684071"/>
<line x1="894.312" y1="8.49445" x2="1028.03" y2="-53.861" stroke="white" stroke-width="0.684071"/>
<line x1="894.312" y1="166.781" x2="1028.03" y2="104.426" stroke="white" stroke-width="0.684071"/>
<line x1="894.312" y1="87.6378" x2="1028.03" y2="25.2823" stroke="white" stroke-width="0.684071"/>
<line x1="894.312" y1="245.924" x2="1028.03" y2="183.569" stroke="white" stroke-width="0.684071"/>
<line x1="894.312" y1="19.8006" x2="1028.03" y2="-42.5549" stroke="white" stroke-width="0.684071"/>
<line x1="894.312" y1="178.087" x2="1028.03" y2="115.731" stroke="white" stroke-width="0.684071"/>
<line x1="894.312" y1="98.9439" x2="1028.03" y2="36.5884" stroke="white" stroke-width="0.684071"/>
<line x1="894.312" y1="257.23" x2="1028.03" y2="194.875" stroke="white" stroke-width="0.684071"/>
<line x1="894.312" y1="31.1068" x2="1028.03" y2="-31.2487" stroke="white" stroke-width="0.684071"/>
<line x1="894.312" y1="189.393" x2="1028.03" y2="127.038" stroke="white" stroke-width="0.684071"/>
<line x1="894.312" y1="110.25" x2="1028.03" y2="47.8946" stroke="white" stroke-width="0.684071"/>
<line x1="894.312" y1="268.537" x2="1028.03" y2="206.181" stroke="white" stroke-width="0.684071"/>
<line x1="894.312" y1="42.4132" x2="1028.03" y2="-19.9423" stroke="white" stroke-width="0.684071"/>
<line x1="894.312" y1="200.7" x2="1028.03" y2="138.344" stroke="white" stroke-width="0.684071"/>
<line x1="894.312" y1="121.556" x2="1028.03" y2="59.2007" stroke="white" stroke-width="0.684071"/>
<line x1="894.312" y1="279.843" x2="1028.03" y2="217.487" stroke="white" stroke-width="0.684071"/>
<line x1="894.312" y1="53.7191" x2="1028.03" y2="-8.63642" stroke="white" stroke-width="0.684071"/>
<line x1="894.312" y1="212.006" x2="1028.03" y2="149.65" stroke="white" stroke-width="0.684071"/>
<line x1="894.312" y1="132.862" x2="1028.03" y2="70.5069" stroke="white" stroke-width="0.684071"/>
<line x1="894.312" y1="291.149" x2="1028.03" y2="228.794" stroke="white" stroke-width="0.684071"/>
<line x1="894.312" y1="65.0255" x2="1028.03" y2="2.66998" stroke="white" stroke-width="0.684071"/>
<line x1="894.312" y1="223.312" x2="1028.03" y2="160.956" stroke="white" stroke-width="0.684071"/>
<line x1="894.312" y1="144.169" x2="1028.03" y2="81.813" stroke="white" stroke-width="0.684071"/>
</g>
<path d="M935.595 -33.6794V-32.9954H1017V-33.6794V-34.3635H935.595V-33.6794ZM1017 229.688V229.004H935.595V229.688V230.372H1017V229.688Z" fill="white" mask="url(#path-14-inside-1_1_122)"/>
<g clip-path="url(#clip1_1_122)">
<mask id="path-42-inside-2_1_122" fill="white">
<path d="M-18 -33.6794H63.4045V229.688H-18V-33.6794Z"/>
</mask>
<line x1="-59.2837" y1="155.475" x2="74.4381" y2="93.1192" stroke="white" stroke-width="0.684071"/>
<line x1="-59.2837" y1="76.3316" x2="74.4381" y2="13.9761" stroke="white" stroke-width="0.684071"/>
<line x1="-59.2837" y1="234.618" x2="74.4381" y2="172.263" stroke="white" stroke-width="0.684071"/>
<line x1="-59.2837" y1="8.49445" x2="74.4381" y2="-53.861" stroke="white" stroke-width="0.684071"/>
<line x1="-59.2837" y1="166.781" x2="74.4381" y2="104.426" stroke="white" stroke-width="0.684071"/>
<line x1="-59.2837" y1="87.6378" x2="74.4381" y2="25.2823" stroke="white" stroke-width="0.684071"/>
<line x1="-59.2837" y1="245.924" x2="74.4381" y2="183.569" stroke="white" stroke-width="0.684071"/>
<line x1="-59.2837" y1="19.8006" x2="74.4381" y2="-42.5549" stroke="white" stroke-width="0.684071"/>
<line x1="-59.2837" y1="178.087" x2="74.4381" y2="115.731" stroke="white" stroke-width="0.684071"/>
<line x1="-59.2837" y1="98.9439" x2="74.4381" y2="36.5884" stroke="white" stroke-width="0.684071"/>
<line x1="-59.2837" y1="257.23" x2="74.4381" y2="194.875" stroke="white" stroke-width="0.684071"/>
<line x1="-59.2837" y1="31.1068" x2="74.4381" y2="-31.2487" stroke="white" stroke-width="0.684071"/>
<line x1="-59.2837" y1="189.393" x2="74.4381" y2="127.038" stroke="white" stroke-width="0.684071"/>
<line x1="-59.2837" y1="110.25" x2="74.4381" y2="47.8946" stroke="white" stroke-width="0.684071"/>
<line x1="-59.2837" y1="268.537" x2="74.4381" y2="206.181" stroke="white" stroke-width="0.684071"/>
<line x1="-59.2837" y1="42.4132" x2="74.4381" y2="-19.9423" stroke="white" stroke-width="0.684071"/>
<line x1="-59.2837" y1="200.7" x2="74.4381" y2="138.344" stroke="white" stroke-width="0.684071"/>
<line x1="-59.2837" y1="121.556" x2="74.4381" y2="59.2007" stroke="white" stroke-width="0.684071"/>
<line x1="-59.2837" y1="279.843" x2="74.4381" y2="217.487" stroke="white" stroke-width="0.684071"/>
<line x1="-59.2837" y1="53.7191" x2="74.4381" y2="-8.63642" stroke="white" stroke-width="0.684071"/>
<line x1="-59.2837" y1="212.006" x2="74.4381" y2="149.65" stroke="white" stroke-width="0.684071"/>
<line x1="-59.2837" y1="132.862" x2="74.4381" y2="70.5069" stroke="white" stroke-width="0.684071"/>
<line x1="-59.2837" y1="291.149" x2="74.4381" y2="228.794" stroke="white" stroke-width="0.684071"/>
<line x1="-59.2837" y1="65.0255" x2="74.4381" y2="2.66998" stroke="white" stroke-width="0.684071"/>
<line x1="-59.2837" y1="223.312" x2="74.4381" y2="160.956" stroke="white" stroke-width="0.684071"/>
<line x1="-59.2837" y1="144.169" x2="74.4381" y2="81.813" stroke="white" stroke-width="0.684071"/>
</g>
<path d="M-18 -33.6794V-32.9954H63.4045V-33.6794V-34.3635H-18V-33.6794ZM63.4045 229.688V229.004H-18V229.688V230.372H63.4045V229.688Z" fill="white" mask="url(#path-42-inside-2_1_122)"/>
</g>
<defs>
<clipPath id="clip0_1_122">
<path d="M935.595 -33.6794H1017V229.688H935.595V-33.6794Z" fill="white"/>
</clipPath>
<clipPath id="clip1_1_122">
<path d="M-18 -33.6794H63.4045V229.688H-18V-33.6794Z" fill="white"/>
</clipPath>
</defs>
</svg>
