<svg width="32" height="32" viewBox="0 0 32 32" fill="none" xmlns="http://www.w3.org/2000/svg">
<rect width="32" height="32" rx="16" fill="white" fill-opacity="0.6"/>
<path d="M17.0281 6C18.1531 6.003 18.7241 6.009 19.2171 6.023L19.4111 6.03C19.6351 6.038 19.8561 6.048 20.1231 6.06C21.1871 6.11 21.9131 6.278 22.5501 6.525C23.2101 6.779 23.7661 7.123 24.3221 7.678C24.8308 8.17773 25.2243 8.78247 25.4751 9.45C25.7221 10.087 25.8901 10.813 25.9401 11.878C25.9521 12.144 25.9621 12.365 25.9701 12.59L25.9761 12.784C25.9911 13.276 25.9971 13.847 25.9991 14.972L26.0001 15.718V17.028C26.0025 17.7574 25.9948 18.4868 25.9771 19.216L25.9711 19.41C25.9631 19.635 25.9531 19.856 25.9411 20.122C25.8911 21.187 25.7211 21.912 25.4751 22.55C25.2243 23.2175 24.8308 23.8223 24.3221 24.322C23.8223 24.8307 23.2176 25.2242 22.5501 25.475C21.9131 25.722 21.1871 25.89 20.1231 25.94L19.4111 25.97L19.2171 25.976C18.7241 25.99 18.1531 25.997 17.0281 25.999L16.2821 26H14.9731C14.2433 26.0026 13.5136 25.9949 12.7841 25.977L12.5901 25.971C12.3527 25.962 12.1154 25.9517 11.8781 25.94C10.8141 25.89 10.0881 25.722 9.45008 25.475C8.78291 25.2241 8.17852 24.8306 7.67908 24.322C7.17003 23.8224 6.77619 23.2176 6.52508 22.55C6.27808 21.913 6.11008 21.187 6.06008 20.122L6.03008 19.41L6.02508 19.216C6.00665 18.4868 5.99831 17.7574 6.00008 17.028V14.972C5.99731 14.2426 6.00465 13.5132 6.02208 12.784L6.02908 12.59C6.03708 12.365 6.04708 12.144 6.05908 11.878C6.10908 10.813 6.27708 10.088 6.52408 9.45C6.77577 8.7822 7.1703 8.17744 7.68008 7.678C8.17923 7.16955 8.78327 6.77607 9.45008 6.525C10.0881 6.278 10.8131 6.11 11.8781 6.06C12.1441 6.048 12.3661 6.038 12.5901 6.03L12.7841 6.024C13.5133 6.00623 14.2427 5.99857 14.9721 6.001L17.0281 6ZM16.0001 11C14.674 11 13.4022 11.5268 12.4645 12.4645C11.5269 13.4021 11.0001 14.6739 11.0001 16C11.0001 17.3261 11.5269 18.5979 12.4645 19.5355C13.4022 20.4732 14.674 21 16.0001 21C17.3262 21 18.5979 20.4732 19.5356 19.5355C20.4733 18.5979 21.0001 17.3261 21.0001 16C21.0001 14.6739 20.4733 13.4021 19.5356 12.4645C18.5979 11.5268 17.3262 11 16.0001 11ZM16.0001 13C16.394 12.9999 16.7842 13.0775 17.1482 13.2282C17.5122 13.3789 17.8429 13.5998 18.1215 13.8783C18.4002 14.1569 18.6212 14.4875 18.772 14.8515C18.9229 15.2154 19.0005 15.6055 19.0006 15.9995C19.0006 16.3935 18.9231 16.7836 18.7724 17.1476C18.6217 17.5116 18.4008 17.8423 18.1223 18.121C17.8437 18.3996 17.513 18.6206 17.1491 18.7714C16.7851 18.9223 16.395 18.9999 16.0011 19C15.2054 19 14.4424 18.6839 13.8798 18.1213C13.3172 17.5587 13.0011 16.7956 13.0011 16C13.0011 15.2044 13.3172 14.4413 13.8798 13.8787C14.4424 13.3161 15.2054 13 16.0011 13M21.2511 9.5C20.9196 9.5 20.6016 9.6317 20.3672 9.86612C20.1328 10.1005 20.0011 10.4185 20.0011 10.75C20.0011 11.0815 20.1328 11.3995 20.3672 11.6339C20.6016 11.8683 20.9196 12 21.2511 12C21.5826 12 21.9005 11.8683 22.135 11.6339C22.3694 11.3995 22.5011 11.0815 22.5011 10.75C22.5011 10.4185 22.3694 10.1005 22.135 9.86612C21.9005 9.6317 21.5826 9.5 21.2511 9.5Z" fill="white"/>
</svg>
