<svg width="9" height="10" viewBox="0 0 9 10" fill="none" xmlns="http://www.w3.org/2000/svg">
<path d="M9.00003 1V7.5C9.00003 7.63261 8.94736 7.75979 8.85359 7.85355C8.75982 7.94732 8.63264 8 8.50003 8C8.36743 8 8.24025 7.94732 8.14648 7.85355C8.05271 7.75979 8.00003 7.63261 8.00003 7.5V2.20687L0.853784 9.35375C0.759964 9.44757 0.632716 9.50028 0.500034 9.50028C0.367352 9.50028 0.240104 9.44757 0.146284 9.35375C0.0524635 9.25993 -0.000244141 9.13268 -0.000244141 9C-0.000244141 8.86732 0.0524635 8.74007 0.146284 8.64625L7.29316 1.5H2.00003C1.86743 1.5 1.74025 1.44732 1.64648 1.35355C1.55271 1.25979 1.50003 1.13261 1.50003 1C1.50003 0.867392 1.55271 0.740215 1.64648 0.646447C1.74025 0.552679 1.86743 0.5 2.00003 0.5H8.50003C8.63264 0.5 8.75982 0.552679 8.85359 0.646447C8.94736 0.740215 9.00003 0.867392 9.00003 1Z" fill="black"/>
</svg>
