<svg width="56" height="56" viewBox="0 0 56 56" fill="none" xmlns="http://www.w3.org/2000/svg">
<path d="M6.99988 51.3334H34.9999" stroke="black" stroke-width="4.66667" stroke-linecap="round" stroke-linejoin="round"/>
<path d="M9.33325 21H32.6666" stroke="black" stroke-width="4.66667" stroke-linecap="round" stroke-linejoin="round"/>
<path d="M32.6666 51.3333V9.33329C32.6666 8.09562 32.1749 6.90863 31.2997 6.03346C30.4246 5.15829 29.2376 4.66663 27.9999 4.66663H13.9999C12.7622 4.66663 11.5753 5.15829 10.7001 6.03346C9.82492 6.90863 9.33325 8.09562 9.33325 9.33329V51.3333" stroke="black" stroke-width="4.66667" stroke-linecap="round" stroke-linejoin="round"/>
<path d="M32.6666 30.3333H37.3333C38.571 30.3333 39.758 30.825 40.6331 31.7001C41.5083 32.5753 42 33.7623 42 35V39.6666C42 40.9043 42.4916 42.0913 43.3668 42.9665C44.242 43.8416 45.4289 44.3333 46.6666 44.3333C47.9043 44.3333 49.0913 43.8416 49.9665 42.9665C50.8416 42.0913 51.3333 40.9043 51.3333 39.6666V22.9366C51.3338 22.3208 51.2124 21.711 50.9761 21.1424C50.7398 20.5737 50.3934 20.0574 49.9566 19.6233L42 11.6666" stroke="black" stroke-width="4.66667" stroke-linecap="round" stroke-linejoin="round"/>
</svg>
