<svg width="24" height="24" viewBox="0 0 24 24" fill="none" xmlns="http://www.w3.org/2000/svg">
<path d="M17.5856 13.5787L14.5856 12.0787C14.4675 12.0199 14.3359 11.9933 14.2043 12.0015C14.0726 12.0097 13.9454 12.0525 13.8356 12.1256L12.4584 13.0444C11.8262 12.6968 11.3059 12.1766 10.9584 11.5444L11.8771 10.1672C11.9502 10.0573 11.993 9.93016 12.0013 9.79848C12.0095 9.6668 11.9828 9.53528 11.924 9.41719L10.424 6.41719C10.3618 6.29163 10.2657 6.186 10.1466 6.11226C10.0274 6.03853 9.89004 5.99964 9.74993 6C8.75537 6 7.80154 6.39509 7.09828 7.09835C6.39502 7.80161 5.99993 8.75544 5.99993 9.75C6.00241 11.9373 6.8724 14.0343 8.41904 15.5809C9.96568 17.1275 12.0627 17.9975 14.2499 18C14.7424 18 15.23 17.903 15.685 17.7145C16.14 17.5261 16.5534 17.2499 16.9016 16.9017C17.2498 16.5534 17.526 16.14 17.7145 15.6851C17.9029 15.2301 17.9999 14.7425 17.9999 14.25C18 14.1107 17.9613 13.9741 17.8881 13.8555C17.8149 13.7369 17.7102 13.6411 17.5856 13.5787ZM14.2499 16.5C12.4603 16.498 10.7446 15.7862 9.47915 14.5208C8.21371 13.2553 7.50192 11.5396 7.49993 9.75C7.49979 9.2298 7.6799 8.72562 8.00961 8.32326C8.33933 7.9209 8.79828 7.64521 9.30837 7.54313L10.3846 9.69938L9.46868 11.0625C9.40024 11.1652 9.35818 11.2831 9.34624 11.406C9.3343 11.5288 9.35285 11.6526 9.40024 11.7666C9.93685 13.0419 10.9514 14.0565 12.2268 14.5931C12.3411 14.6426 12.4659 14.6629 12.5899 14.6521C12.714 14.6413 12.8334 14.5998 12.9374 14.5312L14.3071 13.6181L16.4634 14.6944C16.3605 15.205 16.0836 15.6642 15.6799 15.9935C15.2763 16.3228 14.7709 16.5018 14.2499 16.5ZM11.9999 2.25C10.3166 2.24963 8.66188 2.68508 7.19679 3.51396C5.7317 4.34285 4.50616 5.53692 3.63947 6.97997C2.77277 8.42301 2.29444 10.0659 2.25104 11.7486C2.20764 13.4314 2.60065 15.0967 3.39181 16.5825L2.32774 19.7747C2.2396 20.039 2.22681 20.3226 2.2908 20.5938C2.35479 20.8649 2.49304 21.1129 2.69004 21.3099C2.88704 21.5069 3.13502 21.6451 3.40618 21.7091C3.67733 21.7731 3.96095 21.7603 4.22524 21.6722L7.41743 20.6081C8.72503 21.3036 10.1739 21.6921 11.654 21.744C13.1342 21.7959 14.6067 21.51 15.9598 20.9079C17.3129 20.3057 18.5111 19.4033 19.4634 18.269C20.4156 17.1346 21.097 15.7983 21.4557 14.3613C21.8144 12.9244 21.841 11.4246 21.5335 9.97578C21.226 8.52701 20.5925 7.16732 19.6811 5.99992C18.7697 4.83253 17.6043 3.88811 16.2733 3.23836C14.9424 2.58861 13.481 2.25061 11.9999 2.25ZM11.9999 20.25C10.5496 20.251 9.12471 19.8691 7.86931 19.1428C7.77739 19.0895 7.6752 19.0563 7.56949 19.0455C7.46379 19.0347 7.357 19.0464 7.25618 19.08L3.74993 20.25L4.91899 16.7438C4.95269 16.643 4.9646 16.5362 4.95394 16.4305C4.94327 16.3248 4.91027 16.2226 4.85712 16.1306C3.94772 14.5584 3.5826 12.7299 3.8184 10.929C4.0542 9.12801 4.87774 7.4552 6.16126 6.17006C7.44479 4.88491 9.11655 4.05925 10.9172 3.82118C12.7179 3.5831 14.5468 3.94591 16.1202 4.85333C17.6936 5.76074 18.9236 7.16204 19.6193 8.83983C20.3151 10.5176 20.4377 12.3781 19.9681 14.1327C19.4986 15.8873 18.4632 17.4379 17.0224 18.5439C15.5817 19.65 13.8163 20.2497 11.9999 20.25Z" fill="white"/>
</svg>
