<svg width="32" height="32" viewBox="0 0 32 32" fill="none" xmlns="http://www.w3.org/2000/svg">
<rect width="32" height="32" rx="16" fill="white" fill-opacity="0.6"/>
<path d="M16.001 6C21.524 6 26.001 10.477 26.001 16C26.001 21.523 21.524 26 16.001 26C14.2337 26.003 12.4976 25.5353 10.971 24.645L6.00499 26L7.35699 21.032C6.46595 19.5049 5.99789 17.768 6.00099 16C6.00099 10.477 10.478 6 16.001 6ZM12.593 11.3L12.393 11.308C12.2637 11.3169 12.1373 11.3509 12.021 11.408C11.9126 11.4695 11.8136 11.5463 11.727 11.636C11.607 11.749 11.539 11.847 11.466 11.942C11.0961 12.4229 10.897 13.0133 10.9 13.62C10.902 14.11 11.03 14.587 11.23 15.033C11.639 15.935 12.312 16.89 13.2 17.775C13.414 17.988 13.624 18.202 13.85 18.401C14.9534 19.3724 16.2683 20.073 17.69 20.447L18.258 20.534C18.443 20.544 18.628 20.53 18.814 20.521C19.1052 20.5056 19.3895 20.4268 19.647 20.29C19.7778 20.2223 19.9056 20.1489 20.03 20.07C20.03 20.07 20.0723 20.0413 20.155 19.98C20.29 19.88 20.373 19.809 20.485 19.692C20.569 19.6053 20.639 19.5047 20.695 19.39C20.773 19.227 20.851 18.916 20.883 18.657C20.907 18.459 20.9 18.351 20.897 18.284C20.893 18.177 20.804 18.066 20.707 18.019L20.125 17.758C20.125 17.758 19.255 17.379 18.723 17.137C18.6673 17.1128 18.6077 17.0989 18.547 17.096C18.4786 17.0888 18.4094 17.0965 18.3442 17.1184C18.279 17.1403 18.2192 17.176 18.169 17.223C18.164 17.221 18.097 17.278 17.374 18.154C17.3325 18.2098 17.2753 18.2519 17.2098 18.2751C17.1443 18.2982 17.0733 18.3013 17.006 18.284C16.9408 18.2666 16.877 18.2446 16.815 18.218C16.691 18.166 16.648 18.146 16.563 18.11C15.9889 17.8599 15.4574 17.5215 14.988 17.107C14.862 16.997 14.745 16.877 14.625 16.761C14.2316 16.3842 13.8887 15.958 13.605 15.493L13.546 15.398C13.5043 15.3338 13.47 15.265 13.444 15.193C13.406 15.046 13.505 14.928 13.505 14.928C13.505 14.928 13.748 14.662 13.861 14.518C13.971 14.378 14.064 14.242 14.124 14.145C14.242 13.955 14.279 13.76 14.217 13.609C13.937 12.925 13.6477 12.2447 13.349 11.568C13.29 11.434 13.115 11.338 12.956 11.319C12.902 11.3123 12.848 11.307 12.794 11.303C12.6597 11.2953 12.5251 11.2966 12.391 11.307L12.593 11.3Z" fill="white"/>
</svg>
